# xmcd
#
# Track frame offsets:
#	150
#	28870
#	42392
#	55380
#	68510
#	82986
#	99096
#	113876
#	128471
#	144035
#	158848
#	173682
#	191831
#	207775
#	227988
#	249973
#	257733
#	275397
#
# Disc length: 3911 seconds
#
# Revision: 0
# Processed by: cddbd v1.5.2PL0 Copyright (c) Steve Scherf et al.
# Submitted via: EasyCDDAExtractor 16.0.6.1
#
DISCID=e90f4512
DTITLE=Ξυλούρης Νίκος - Ο Ν. Ξυλούρης τραγουδά μεγ. επιτυχίες του 2
DYEAR=2009
DGENRE=Κρητική
TTITLE0=Ξυλούρης Νίκος-Ξυλούρης Γιάννης - Εις του βαρσάμου το νερό
TTITLE1=Ξυλούρης Νίκος - Όλα σου είναι όμορφα [συρτός]
TTITLE2=Ξυλούρης Νίκος-Σταυρακάκης Θανάσης - Ρώτησε την γειτόνισσα [κονδυλιές,
TTITLE2=Γιάννης Ξυλούρης-Μαν. Μανουράς]
TTITLE3=Ξυλούρης Νίκος-Ξυλούρης Γιάννης - Ίντα 'χετε γυρού γυρού
TTITLE4=Ξυλούρης Νίκος - Πώς είσαι, αγάπη μου, μακριά [συρτός, Μαν. Μανουράς-Γ
TTITLE4=ιάννης Ξυλούρης]
TTITLE5=Ξυλούρης Νίκος-Χατζάκης Γιώργος - Ζαμάνια τό 'χα να σε δω [πρ. συρτ. χ
TTITLE5=ανιώτικος, Ν. Ξυλούρης]
TTITLE6=Άνευ ερμηνευτού - Σούστα ρεθυμνιώτικη [Γιάννης Αποστολάκης]
TTITLE7=Ξυλούρης Νίκος - Στο ρίζωμα του χαρακιού [συρτός χαρακιανός, Ν. Ξυλούρ
TTITLE7=ης-Γιάννης Ξυλούρης]
TTITLE8=Ξυλούρης Νίκος - Σώσε με γιατρέ μου [αμανές, Ν. Ξυλούρης]
TTITLE9=Ξυλούρης Νίκος-Σταυρακάκης Θανάσης - Μιά πέρδικα συχνοτσιμπά [κονδυλιέ
TTITLE9=ς, Ν. Ξυλούρης-Γιάννης Ξυλούρης]
TTITLE10=Ξυλούρης Νίκος - Δεν κλαίνε οι δυνατές καρδιές [συρτός, Ν. Ξυλούρης]
TTITLE11=Στόκας Μπάμπης - Έβαλε ο Θεός σημάδι [Στ. Ξαρχάκος-Ν. Γκάτσος]
TTITLE12=Λιδάκης Μανώλης - Ήτανε μιά φορά [Στ. Ξαρχάκος-Κώστας Φέρρης]
TTITLE13=Ξυλούρη Νίκη - Γλυκά είναι τα δάκρυα [Γιώργος Τζιμάκης-Στέλιος Φουστα
TTITLE13=λιεράκης]
TTITLE14=Χαρούλης Γιάννης - Πόνοι της Παναγιάς [Στ. Ξαρχάκος-Ιάκ. Καμπανέλλης]
TTITLE15=Σταυρακάκης Βασίλης - Καλήν εσπέραν [Στ. Ξαρχάκος-Ιάκ. Καμπανέλλης]
TTITLE16=Ψαραντώνης - Ανυφαντού [Ν. Ξυλούρης]
TTITLE17=Κουτσουρέλης Γιώργος - Κρουσταλοβραχιωνάτη μου [Γιάννης Ξυλούρης]
EXTD=
EXTT0=
EXTT1=
EXTT2=
EXTT3=
EXTT4=
EXTT5=
EXTT6=
EXTT7=
EXTT8=
EXTT9=
EXTT10=
EXTT11=
EXTT12=
EXTT13=
EXTT14=
EXTT15=
EXTT16=
EXTT17=
PLAYORDER=
